<?xml version="1.0" encoding="UTF-8"?> <!-- Generator: Adobe Illustrator 18.0.0, SVG Export Plug-In . SVG Version: 6.00 Build 0) --> <svg xmlns="http://www.w3.org/2000/svg" xmlns:xlink="http://www.w3.org/1999/xlink" id="Layer_1" x="0px" y="0px" viewBox="0 0 500 471" xml:space="preserve"> <g> <path fill="#C2DDF3" d="M377.4,364H65.9c-13.1,0-23.8-10.6-23.8-23.8v-12.5h359v12.5C401.1,353.4,390.5,364,377.4,364z"></path> <rect x="185.5" y="364" fill="#72ADDB" width="73.7" height="31.7"></rect> <path fill="#214B82" d="M401.1,328.3h-359V140.5c0-12.1,9.8-22,22-22h315.1c12.1,0,22,9.8,22,22V328.3z"></path> <rect x="56.7" y="133.6" fill="#D6E8F7" width="332.1" height="181.7"></rect> <circle fill="#FFFFFF" cx="221.7" cy="344.3" r="8.1"></circle> <path fill="#FFFFFF" d="M361.8,297.1h-150c-3.7,0-6.7-3-6.7-6.7V156.9c0-3.7,3-6.7,6.7-6.7h150c3.7,0,6.7,3,6.7,6.7v133.6 C368.4,294.1,365.4,297.1,361.8,297.1z"></path> <path fill="#FFFFFF" d="M181.6,297.1H85.5c-3.7,0-6.7-3-6.7-6.7v-65.9c0-3.7,3-6.7,6.7-6.7h96.1c3.7,0,6.7,3,6.7,6.7v65.9 C188.2,294.1,185.3,297.1,181.6,297.1z"></path> <g> <g> <path fill="#1BBECC" d="M441.6,256.7L441.6,256.7c5.3-5.6,2.8-11.8,1.8-13.7c0,0,0,0,0,0c-0.2-0.4-0.3-0.6-0.3-0.6l0,0 c-1.6-3.1-2.5-6.5-2.5-10.2c0-6.3,2.5-11.9,6.6-16c3.8-5,0.9-11.6,0.9-11.6h0c-0.6-1.7-0.9-3.5-0.9-5.3c0-8.8,7.2-16,16-16 c8.8,0,16,7.2,16,16c0,1.9-0.3,3.7-0.9,5.3h0c0,0-2.8,6.6,0.9,11.6c4.1,4.1,6.6,9.8,6.6,16c0,3.7-0.9,7.1-2.5,10.2l0,0 c0,0,0,0-0.1,0.1c-0.1,0.2-0.3,0.5-0.4,0.7c-1,2.1-2.9,7.6,1.5,12.8c0.1,0.2,0.3,0.3,0.4,0.5c0,0,0.1,0.1,0.1,0.1l0,0 c3.8,4.8,6.1,10.8,6.1,17.4c0,15.4-12.5,27.9-27.9,27.9c-15.4,0-27.9-12.5-27.9-27.9C435.5,267.5,437.8,261.5,441.6,256.7z"></path> <path fill="#0B9DB0" d="M455.1,271.7l6.8,6.8v-23.7l-8.4-8.3c-0.4-0.4-0.4-1.1,0-1.6c0.4-0.4,1.1-0.4,1.6,0l6.8,6.8v-32.7 c0-0.6,0.5-1.1,1.1-1.1c0.6,0,1.1,0.5,1.1,1.1v19.7l6.6-6.6c0.4-0.4,1.1-0.4,1.6,0c0.4,0.4,0.4,1.1,0,1.6l-8.2,8.2v23.8l7.3-7.4 c0.4-0.4,1.1-0.4,1.6,0c0.4,0.4,0.4,1.1,0,1.6l-8.9,9V332c0,0.6-0.5,1.1-1.1,1.1c-0.6,0-1.1-0.5-1.1-1.1v-50.4l-8.4-8.3 c-0.4-0.4-0.4-1.1,0-1.6C454,271.3,454.7,271.3,455.1,271.7z"></path> </g> <path fill="#CADFEE" d="M489.6,334.1H453c-0.7,0-1.2-0.6-1.2-1.2c0-0.7,0.6-1.2,1.2-1.2h36.6c0.7,0,1.2,0.6,1.2,1.2 C490.8,333.5,490.2,334.1,489.6,334.1z"></path> </g> <g> <g> <path fill="#D6E8F7" d="M173.4,273.9H93.5c-1.2,0-2.3-1-2.3-2.3v-0.2c0-1.2,1-2.3,2.3-2.3h79.9c1.2,0,2.3,1,2.3,2.3v0.2 C175.7,272.9,174.7,273.9,173.4,273.9z"></path> <path fill="#D6E8F7" d="M139.1,285.1H93.5c-1.2,0-2.3-1-2.3-2.3v-0.2c0-1.2,1-2.3,2.3-2.3h45.6c1.2,0,2.3,1,2.3,2.3v0.2 C141.3,284.1,140.3,285.1,139.1,285.1z"></path> </g> <circle fill="#D6E8F7" cx="103.5" cy="242.1" r="15"></circle> </g> <path fill="#CADFEE" d="M447.6,408.9H1.1c-0.6,0-1.1-0.5-1.1-1.1s0.5-1.1,1.1-1.1h446.5c0.6,0,1.1,0.5,1.1,1.1 S448.2,408.9,447.6,408.9z"></path> <path fill="#8EB1DD" d="M336.1,283.1h-34.8c-5.4,0-9.8-4.4-9.8-9.8v-34.8c0-5.4,4.4-9.8,9.8-9.8h34.8c5.4,0,9.8,4.4,9.8,9.8v34.8 C345.9,278.7,341.5,283.1,336.1,283.1z"></path> <g> <path fill="#578DCA" d="M302.1,458.2h-43.5c-3.9,0-7-3.2-7-7v-12.4c0-3.9,3.2-7,7-7h43.5c3.9,0,7,3.2,7,7v12.4 C309.1,455.1,306,458.2,302.1,458.2z"></path> <path fill="#8EB1DD" d="M302.1,451.2h-43.5c-3.9,0-7-3.2-7-7v-12.4c0-3.9,3.2-7,7-7h43.5c3.9,0,7,3.2,7,7v12.4 C309.1,448,306,451.2,302.1,451.2z"></path> </g> <g> <g> <path fill="#FBBCA2" d="M324.7,270.1c2.7,0,4.9,2.3,4.9,5.1c0,2.8-2.2,5-4.9,5c-2.7,0-4.9-2.3-4.9-5.1 C319.8,272.3,321.9,270.1,324.7,270.1z"></path> </g> <g> <g> <path fill="#FBBCA2" d="M417.6,306.4c-1.6-1.8-4.4-1.8-6.1,0c-1.8,1.8-1.9,4.7-0.3,6.6c1.6,1.8,4.4,1.8,6.1,0 C419.1,311.2,419.2,308.3,417.6,306.4z"></path> <g> <path fill="#FFD475" d="M395.8,325.9l-15.9-13.7c-2-1.3-4.4-0.5-5.4,1.7c-1,2.2-0.2,5.1,1.8,6.3l15.9,13.7 c3.3,2.1,7.2,1.5,9.7-1.4l13.3-16.6l-6.4-6.2L395.8,325.9z"></path> </g> </g> <polygon fill="#FBBCA2" points="359.3,433.4 365.6,433.2 365.5,421.9 359.1,422.2 "></polygon> <path fill="#241C2B" d="M348.9,438.7l16.9-0.2l-0.1-7.4l-10.2,0.1C351.8,431.2,348.8,434.6,348.9,438.7L348.9,438.7z"></path> <polygon fill="#FBBCA2" points="387.7,433.4 381.3,433.2 379.9,421.9 386.4,422.2 "></polygon> <path fill="#241C2B" d="M398.1,438.7l-16.3-0.2l-0.7-7.4l10.4,0.1C395.1,431.2,398.1,434.6,398.1,438.7L398.1,438.7z"></path> <g> <g> <polygon fill="#16365E" points="358.8,346.1 369.9,345.7 371.1,345.7 382.2,345.3 382.3,361.5 359.7,362.3 "></polygon> </g> <path fill="#16365E" d="M379.1,427.3l10.1-0.1l-5.3-41.8l-1.7-40.2l-10.7,1.8l1.4,38.8c0,0.4,0,0.9,0.1,1.3L379.1,427.3z"></path> <path fill="#16365E" d="M357,426.8l9.6,0.1l-1.4-39.8l5.4-39.8l-11.7-1.2l-4.5,40.3c0,0.4,0,0.8,0,1.2L357,426.8z"></path> </g> <g> <g> <rect x="367.3" y="305.1" fill="#FBBCA2" width="6.5" height="8.8"></rect> <g> <circle fill="#FBBCA2" cx="361.9" cy="299.8" r="2.2"></circle> <circle fill="#FBBCA2" cx="379.4" cy="299.8" r="2.2"></circle> <circle fill="#0A2141" cx="370.6" cy="297.9" r="8.9"></circle> </g> <path fill="#FFD475" d="M382.2,347.2h-23.6l-0.9-27.7c0-4.6,2.9-8.4,7.2-8.4h10.9c4.4,0,7.2,3.8,7.2,8.4L382.2,347.2z"></path> </g> </g> </g> <path fill="#FFD475" d="M359.1,321.3l-17.7-18.3c-0.1-0.1-0.2-0.2-0.2-0.3l-17.4-21l7.4-6.1l17.2,20.9l17.6,18.2L359.1,321.3z"></path> </g> <g> <g> <g> <polygon fill="#FBBCA2" points="260.9,144.8 267.2,144.6 264.5,133.6 258.2,133.9 "></polygon> <path fill="#241C2B" d="M250.8,149.9l16.4-0.2l-0.1-7.2l-9.9,0.1C253.7,142.7,250.8,145.9,250.8,149.9L250.8,149.9z"></path> </g> </g> <g> <g> <polygon fill="#F9B299" points="231.9,112.1 238.1,111.9 234.6,102.4 228.3,102.7 "></polygon> <path fill="#0F0F10" d="M222.2,118.7l16.4-0.2l-0.1-7.2l-9.9,0.1C225.1,111.5,222.2,114.7,222.2,118.7L222.2,118.7z"></path> </g> </g> <path fill="#042E47" d="M264.8,75.3l-41.5,12.9l3.5-8.4l11.9,27.5l-10.6,0.6l-13-23.2c-1.4-3-0.1-6.6,2.9-8.1l0.6-0.3l39.1-18.8 L264.8,75.3z"></path> <g> <path fill="#F7AAAC" d="M186.6,95c-1.6-1.8-4.3-1.8-6,0c-1.7,1.8-1.9,4.6-0.3,6.4c1.6,1.8,4.3,1.8,6,0 C188.1,99.7,188.2,96.8,186.6,95z"></path> <path fill="#F7C86A" d="M189.3,100.1l-5.3-7.8l22.3-15L221,52.8l8,4.8l-15.3,25.4c-0.4,0.6-0.8,1.1-1.4,1.5L189.3,100.1z"></path> </g> <g> <polygon fill="#FBBCA2" points="215.5,52.8 220.6,52.9 222.2,59.6 212.6,58 "></polygon> <g> <path fill="#FBBCA2" d="M198.2,55.2l1.5-1.7l2.2,1.9l-1.6,1.3l-1.6-0.1C198.1,56.5,197.8,55.7,198.2,55.2z"></path> <g> <defs> <circle id="SVGID_1_" cx="208.1" cy="52.8" r="8.9"></circle> </defs> <use xlink:href="#SVGID_1_" overflow="visible" fill="#FBBCA2"></use> <clipPath id="SVGID_2_"> <use xlink:href="#SVGID_1_" overflow="visible"></use> </clipPath> <polygon clip-path="url(#SVGID_2_)" fill="#0A2141" points="200.4,44 219.1,58.4 216.1,43.1 "></polygon> </g> <circle fill="#FBBCA2" cx="211.5" cy="50.9" r="2.5"></circle> </g> </g> <path fill="#FFD475" d="M250.3,51.3l0.2,18.7l-26.6,4.2l-5.1-21.3l2.2-1c4.1-1.8,8.6-2.3,12.9-1.5l4.2,0.4L250.3,51.3z"></path> <path fill="#16365E" d="M250.5,70l18.7,1.3l0-1.8c0-10.3-8.5-18.6-18.8-18.1l0,0L250.5,70z"></path> <path fill="#16365E" d="M269.2,71.3l-13,27.4l0.1-3.5l9.6,43.7l-10.1,0.1l-11.7-40.7c-0.2-0.8-0.3-1.7-0.1-2.5l0.2-1l6.3-28.6 L269.2,71.3z"></path> <g> <path fill="#FFFFFF" d="M236.6,129.6l-127.8-24.5c-3.1-0.6-5.1-3.6-4.5-6.7l2.9-15.3c0.6-3.1,3.6-5.1,6.7-4.5l127.8,24.5 c3.1,0.6,5.1,3.6,4.5,6.7l-2.9,15.3C242.7,128.1,239.7,130.2,236.6,129.6z"></path> <path fill="#91B7E1" d="M237.3,122.4l-3-4.9c0.9-0.9,1.6-2,1.9-3.4c0.7-3.4-1.6-6.7-5-7.4s-6.7,1.6-7.4,5s1.6,6.7,5,7.4 c1.4,0.3,2.7,0.1,3.9-0.5l3,4.8L237.3,122.4z M234.2,113.7c-0.4,2.3-2.7,3.9-5,3.4c-2.3-0.4-3.9-2.7-3.4-5c0.4-2.3,2.7-3.9,5-3.4 C233.1,109.1,234.6,111.4,234.2,113.7z"></path> </g> <g> <path fill="#FBBCA2" d="M213.1,114.3c-1.6-1.8-4.3-1.8-6,0c-1.7,1.8-1.9,4.6-0.3,6.4c1.6,1.8,4.3,1.8,6,0 C214.5,118.9,214.6,116,213.1,114.3z"></path> <path fill="#FFD475" d="M215.8,116.7l-7.7-5.3l17-24.9l-4.5-26l9.2-1.6l4.8,27.9c0.2,1.2-0.1,2.4-0.8,3.4L215.8,116.7z"></path> </g> </g> <path fill="#C2DDF3" d="M290.7,406.4H152.7l0,0c0-5.9,4.8-10.6,10.6-10.6h116.8C286,395.8,290.7,400.5,290.7,406.4L290.7,406.4z"></path> <g> <g> <path fill="#FBBCA2" d="M63.6,456.3c0-0.5-1.2-13.3-1.2-13.3l6.6-1.3l1.3,13.3L63.6,456.3z"></path> <path fill="#0F0F10" d="M82.7,455.4l-18.5,3.8l-1.1-5.7l12.8-2.6C79,450.2,82.1,452.2,82.7,455.4L82.7,455.4z"></path> </g> <path fill="#042E47" d="M38.9,384.4l26,20l0.8,0.6c1.4,1.1,2.2,2.7,2.4,4.3l3.2,36.6l-9.2,1.4l-6.2-37.6l3.2,4.9l-30.8-12.9 L38.9,384.4z"></path> <path fill="#F7C86A" d="M22.3,396.4l22.4-8c1.9-0.6,2.9-2.6,2.3-4.4l-9.5-30.7l-17.9,5.6c-6.4,2-10,8.8-8,15.2L22.3,396.4z"></path> <path fill="#8EB1DD" d="M83.1,390.3l-30.9,7.8c-4.8,1.2-9.7-1.7-10.9-6.5l-7.8-30.9c-1.2-4.8,1.7-9.7,6.5-10.9l30.9-7.8 c4.8-1.2,9.7,1.7,10.9,6.5l7.8,30.9C90.9,384.2,88,389.1,83.1,390.3z"></path> <g> <path fill="#FBBCA2" d="M22.1,466.9c0.1-0.5,1.9-13.1,1.9-13.1l6.7,0.5L29,467.4L22.1,466.9z"></path> <path fill="#241C2B" d="M41,470.5l-18.9-0.1l0-5.8l13,0C38.4,464.7,41,467.3,41,470.5L41,470.5z"></path> </g> <path fill="#16365E" d="M37.8,389.4l3.3,26.3l0.2,1.3c0.1,0.7,0.1,1.3-0.1,1.9l-8.6,40.6l-10.1-0.7l5.6-41.2l0.2,3.3l-6.3-25.6 L37.8,389.4z"></path> <g> <circle fill="#FBBCA2" cx="61.6" cy="375.3" r="4.4"></circle> <polygon fill="#FBBCA2" points="59,372.9 50.1,377.7 52.9,381.8 63.3,377 "></polygon> </g> <g> <g> <path fill="#FBBCA2" d="M33.9,340.1l-2.1-0.7l-1,2.8l2,0.3l1.3-0.9C34.7,341.1,34.5,340.3,33.9,340.1z"></path> <g> <defs> <circle id="SVGID_3_" cx="24.1" cy="343" r="9"></circle> </defs> <use xlink:href="#SVGID_3_" overflow="visible" fill="#FBBCA2"></use> <clipPath id="SVGID_4_"> <use xlink:href="#SVGID_3_" overflow="visible"></use> </clipPath> <polygon clip-path="url(#SVGID_4_)" fill="#0A2141" points="26.3,331.4 17.3,353.5 12.1,338.6 "></polygon> </g> <circle fill="#FBBCA2" cx="20.1" cy="343.1" r="2.5"></circle> <circle fill="#0A2141" cx="9.2" cy="346.4" r="7.9"></circle> </g> <path fill="#FBBCA2" d="M28,350.5c0,0.5,0.9,12.5,0.9,12.5l-8.2-4.6l0.3-7.6L28,350.5z"></path> </g> <path fill="#FFD475" d="M33.4,396.4c-1.6,0.1-3.3-0.7-4.3-2.1l-15.9-22.6c-1.6-2.3-1-5.4,1.2-7l0,0c2.3-1.6,5.4-1,7,1.2l13.2,18.9 l19.4-11.2l5,8.7l-23.4,13.5C35,396.1,34.2,396.4,33.4,396.4z"></path> </g> <g> <path fill="#FFFFFF" d="M165.5,176.7H82c-1.2,0-2.3-1-2.3-2.3v-0.2c0-1.2,1-2.3,2.3-2.3h83.6c1.2,0,2.3,1,2.3,2.3v0.2 C167.8,175.7,166.8,176.7,165.5,176.7z"></path> <path fill="#FFFFFF" d="M165.5,206.6H82c-1.2,0-2.3-1-2.3-2.3v-0.2c0-1.2,1-2.3,2.3-2.3h83.6c1.2,0,2.3,1,2.3,2.3v0.2 C167.8,205.6,166.8,206.6,165.5,206.6z"></path> <path fill="#FFFFFF" d="M185.4,191.6H82c-1.2,0-2.3-1-2.3-2.3v-0.2c0-1.2,1-2.3,2.3-2.3h103.4c1.2,0,2.3,1,2.3,2.3v0.2 C187.7,190.6,186.6,191.6,185.4,191.6z"></path> </g> <g> <path fill="#FFFFFF" d="M317.1,17.2h-55.7c0,0,4.1-16.7,18.5-16.7c10.7,0,16.2,6.7,18.4,10.2C302.5,9.1,311.5,7.1,317.1,17.2"></path> <g> <g> <path fill="#FFFFFF" d="M398.4,70.5c2.7,0,5.3,0.7,7.5,2c4.3-7.4,12.1-12.4,21.1-12.4c8.4,0,15.8,4.3,20.2,11 c2.3-8,9.5-13.8,18.1-13.8c9.7,0,17.7,7.5,18.7,17.1c0.8-0.1,1.6-0.2,2.4-0.2c5.9,0,11,3.4,13.6,8.4H383.4 C385,75.7,391.1,70.5,398.4,70.5z"></path> </g> </g> </g> </g> </svg> 