<?xml version="1.0" encoding="iso-8859-1"?>
<!-- Generator: Adobe Illustrator 19.0.0, SVG Export Plug-In . SVG Version: 6.00 Build 0)  -->
<svg version="1.1" id="Capa_1" xmlns="http://www.w3.org/2000/svg" xmlns:xlink="http://www.w3.org/1999/xlink" x="0px" y="0px"
	 viewBox="0 0 512 512" style="enable-background:new 0 0 512 512;" xml:space="preserve">
<path style="fill:#C0BCC1;" d="M462.452,53.677H49.548c-13.682,0-24.774,11.092-24.774,24.774V425.29h462.452V78.452
	C487.226,64.769,476.134,53.677,462.452,53.677z"/>
<path style="fill:#E6646E;" d="M466.581,384H45.419c-2.28,0-4.129-1.849-4.129-4.129V90.839c0-2.28,1.849-4.129,4.129-4.129H466.58
	c2.28,0,4.129,1.849,4.129,4.129v289.032C470.71,382.151,468.861,384,466.581,384z"/>
<path style="fill:#9C969E;" d="M495.484,458.323H16.516C7.395,458.323,0,450.928,0,441.806V425.29c0-4.561,3.697-8.258,8.258-8.258
	h495.484c4.561,0,8.258,3.697,8.258,8.258v16.516C512,450.928,504.605,458.323,495.484,458.323z"/>
<path style="fill:#867E88;" d="M280.774,433.548h-49.548c-4.565,0-8.258-3.698-8.258-8.258s0-8.258,0-8.258h66.065
	c0,0,0,3.698,0,8.258S285.339,433.548,280.774,433.548z"/>
<path style="fill:#DC4655;" d="M222.968,367.484c-91.216,0-165.161-73.945-165.161-165.161V86.71H45.419
	c-2.28,0-4.129,1.849-4.129,4.129v289.032c0,2.28,1.849,4.129,4.129,4.129H466.58c2.28,0,4.129-1.849,4.129-4.129v-12.387H222.968z"
	/>
<path style="fill:#867E88;" d="M16.516,458.323h478.968c9.121,0,16.516-7.395,16.516-16.516H0
	C0,450.928,7.395,458.323,16.516,458.323z"/>
<path style="fill:#FFFFFF;" d="M197.375,185.806h-41.29c-9.122,0-16.516,7.395-16.516,16.516v33.032
	c0,9.122,7.395,16.516,16.516,16.516h41.29l96.132,36.974c5.409,2.08,11.223-1.912,11.223-7.708V156.54
	c0-5.795-5.813-9.788-11.223-7.708L197.375,185.806z"/>
<g>
	<path style="fill:#DEB6BB;" d="M189.935,243.613h-41.29l29.289,82.592c1.753,4.943,6.43,8.247,11.675,8.247h24.356
		c3.992,0,6.782-3.95,5.448-7.713L189.935,243.613z"/>
	<path style="fill:#DEB6BB;" d="M331.507,200.758l-26.777-6.694v49.548l26.777-6.695c3.676-0.918,6.256-4.222,6.256-8.011V208.77
		C337.762,204.981,335.183,201.677,331.507,200.758z"/>
</g>
<g>
	<path style="fill:#FFFFFF;" d="M412.081,227.097h-41.29c-4.565,0-8.258-3.694-8.258-8.258s3.694-8.258,8.258-8.258h41.29
		c4.565,0,8.258,3.694,8.258,8.258S416.645,227.097,412.081,227.097z"/>
	<path style="fill:#FFFFFF;" d="M362.54,194.065c-3.032,0-5.944-1.669-7.395-4.565c-2.04-4.081-0.387-9.04,3.694-11.081
		l16.516-8.258c4.081-2.024,9.032-0.387,11.081,3.694c2.04,4.081,0.387,9.04-3.694,11.081l-16.516,8.258
		C365.04,193.782,363.782,194.065,362.54,194.065z"/>
	<path style="fill:#FFFFFF;" d="M379.04,268.387c-1.242,0-2.5-0.282-3.685-0.871l-16.516-8.258c-4.081-2.04-5.734-7-3.694-11.081
		c2.048-4.081,6.992-5.718,11.081-3.694l16.516,8.258c4.081,2.04,5.734,7,3.694,11.081
		C384.984,266.718,382.073,268.387,379.04,268.387z"/>
</g>
<g>
	<path style="fill:#EDEBED;" d="M198.194,185.492l-0.819,0.315h-41.29c-9.122,0-16.516,7.394-16.516,16.516v33.032
		c0,9.121,7.394,16.516,16.516,16.516h41.29l0.819,0.315V185.492z"/>
	<path style="fill:#EDEBED;" d="M293.507,260.313l-96.132-36.974h-41.29c-9.122,0-16.516-7.395-16.516-16.516v28.532
		c0,9.121,7.394,16.516,16.516,16.516h41.29l96.132,36.974c5.409,2.081,11.223-1.912,11.223-7.708v-28.532
		C304.73,258.4,298.916,262.393,293.507,260.313z"/>
</g>
<path style="fill:#DBD9DC;" d="M198.194,223.653l-0.819-0.315h-41.29c-9.122,0-16.516-7.395-16.516-16.516v28.532
	c0,9.121,7.394,16.516,16.516,16.516h41.29l0.819,0.315V223.653z"/>
<g>
</g>
<g>
</g>
<g>
</g>
<g>
</g>
<g>
</g>
<g>
</g>
<g>
</g>
<g>
</g>
<g>
</g>
<g>
</g>
<g>
</g>
<g>
</g>
<g>
</g>
<g>
</g>
<g>
</g>
</svg>
